<svg width="556" height="300" viewBox="0 0 556 300" fill="none" xmlns="http://www.w3.org/2000/svg">
<path fill-rule="evenodd" clip-rule="evenodd" d="M159.24 118.94L212.42 65.7601C213.27 64.9101 214.66 64.9101 215.51 65.7601L268.69 118.94C269.54 119.79 269.54 121.18 268.69 122.03L215.51 175.21C214.66 176.06 213.27 176.06 212.42 175.21L159.24 122.03C158.39 121.18 158.39 119.79 159.24 118.94Z" fill="white"/>
<path fill-rule="evenodd" clip-rule="evenodd" d="M287.32 118.94L340.5 65.7601C341.35 64.9101 342.74 64.9101 343.59 65.7601L396.77 118.94C397.62 119.79 397.62 121.18 396.77 122.03L343.59 175.21C342.74 176.06 341.35 176.06 340.5 175.21L287.32 122.03C286.47 121.18 286.47 119.79 287.32 118.94Z" fill="white"/>
<path fill-rule="evenodd" clip-rule="evenodd" d="M223.28 54.6L276.46 1.41997C277.31 0.569971 278.7 0.569971 279.55 1.41997L332.73 54.6C333.58 55.45 333.58 56.84 332.73 57.69L279.55 110.87C278.7 111.72 277.31 111.72 276.46 110.87L223.28 57.69C222.43 56.84 222.43 55.45 223.28 54.6Z" fill="white"/>
<path d="M303.66 297.65C302.81 297.68 302.14 296.96 302.23 296.11C303.39 285.11 304.07 271.18 304.07 254.46C304.07 237.74 303.51 223.84 302.37 212.85C302.28 211.98 302.98 211.25 303.86 211.32C308.14 211.66 313.68 211.67 317.56 211.67C321.44 211.67 325.44 211.65 329.34 211.31C330.22 211.23 330.94 211.94 330.86 212.82C329.74 224.09 329.45 238.71 329.45 255.27C329.45 270.04 329.43 278.94 330.03 285.84C330.1 286.57 330.73 287.12 331.47 287.11C342.89 286.89 351.91 286.92 362.03 286.17C362.9 286.11 363.63 286.83 363.54 287.7C363.38 289.14 363.3 290.82 363.3 292.19C363.3 293.4 363.28 294.62 363.39 295.94C363.46 296.78 362.77 297.49 361.93 297.45C348.97 296.94 338.91 297.01 331.25 297.01C325.29 297.01 308.87 297.5 303.67 297.66" fill="white"/>
<path d="M265.83 248.39C269.33 245.5 271.24 241.14 271.24 234.92C271.24 224.77 265.51 219.7 254.03 219.7C250.91 219.7 250.05 219.72 249.6 219.74C248.85 219.77 248.26 220.39 248.26 221.14V251.01C248.26 251.83 248.95 252.48 249.77 252.41C253.4 252.11 262.56 251.09 265.83 248.39ZM222.78 297.61C221.91 297.66 221.23 296.92 221.32 296.06C222.52 285.29 223.26 271.42 223.26 254.45C223.26 237.48 222.68 223.96 221.49 212.74C221.4 211.87 222.12 211.15 222.99 211.22C226.32 211.47 229.56 211.58 232.74 211.58C235.03 211.58 239.18 211.51 245.18 211.34C251.14 211.17 256.05 211.08 259.87 211.08C272.5 211.08 281.84 212.9 287.89 216.51C293.94 220.13 296.95 225.88 296.95 233.78C296.95 251.37 283.85 261.58 253.88 261.58H249.9C249.13 261.58 248.5 262.21 248.5 262.98V277.5C248.5 282.55 248.92 287.13 250.08 295.97C250.2 296.85 249.46 297.62 248.58 297.55C244.11 297.22 239.98 297.06 236.4 297.06C233.33 297.06 226.06 297.42 222.79 297.6" fill="white"/>
<path d="M140.56 293.69C142.22 288.62 143.48 281.26 144.9 275.46C145.05 274.83 145.62 274.41 146.26 274.41C146.9 274.41 147.48 274.89 147.62 275.53C149.92 285.88 156.52 290.58 170.12 290.58C175.92 290.58 180.85 290.47 184.3 288.09C187.75 285.71 189.49 282.58 189.49 278.74C189.49 275.33 187.83 272.35 184.39 269.92C182.06 268.27 177.19 266.04 169.96 263.13C158.41 258.47 152.42 255.84 148.35 252.66C142.91 248.41 140.53 242.01 140.53 235.43C140.53 227.76 144.12 221.5 151.31 216.62C158.5 211.75 168.21 209.32 180.44 209.32C190.2 209.32 198.86 211.13 206.38 214.72C207.07 215.05 207.35 215.87 207.04 216.56C204.89 221.42 202.95 227.43 201.69 231.43H199.81C198.13 227.59 195.19 223.03 191.1 220.84C187.04 218.67 182.7 217.87 177.37 217.87C172.38 217.87 168.76 218.75 165.69 220.84C162.65 222.92 160.74 224.99 160.74 227.84C160.74 231.07 162.32 233.86 165.49 236.16C167.85 237.87 173.31 240.57 180.12 243.21C184.99 245.09 188.2 246.95 193.02 248.78C197.83 250.61 201.23 252.36 203.28 253.98C209.25 258.68 211.54 264.1 211.54 270.93C211.54 279.54 207.78 286.57 199.98 291.79C192.29 296.93 183.83 299.18 170.64 299.33C159.78 299.45 146.08 296.5 141.57 295.46C140.77 295.27 140.31 294.46 140.56 293.68" fill="white"/>
<path d="M107.12 297.74C106.25 297.79 105.56 297.06 105.65 296.2C106.75 285.78 107.4 271.89 107.4 254.52C107.4 237.15 106.87 222.9 105.78 212.76C105.69 211.88 106.42 211.15 107.3 211.23C111.57 211.62 115.8 211.82 119.98 211.82C124.16 211.82 128.41 211.62 132.5 211.23C133.38 211.15 134.11 211.87 134.02 212.76C132.93 223.02 132.37 236.94 132.37 254.51C132.37 272.08 132.93 286.18 134.01 296.16C134.11 297.04 133.38 297.76 132.5 297.7C127.88 297.36 123.7 297.2 119.97 297.2C116.73 297.2 110.17 297.55 107.1 297.73" fill="white"/>
<path d="M0.979949 295.65C15.1399 269.5 28.98 241.16 42.12 210.62C42.35 210.07 42.91 209.73 43.5 209.78C45.76 209.96 49.1099 210.05 50.7699 210.05C52.4299 210.05 55.48 209.96 57.37 209.79C57.97 209.74 58.5299 210.08 58.7699 210.63C70.5499 237.72 82.5199 266.05 97.8299 295.65C98.3299 296.61 97.6099 297.76 96.5299 297.7C92.6699 297.48 87.4099 297.38 83.3699 297.38C79.0099 297.38 73.7699 297.51 69.8599 297.8C69.2399 297.84 68.6699 297.49 68.4499 296.91C66.2699 291.2 63.8199 284.41 59.8799 274.58C59.6799 274.07 59.17 273.71 58.62 273.68C47.28 273.2 38.17 273.21 26.86 273.68C26.31 273.7 25.8099 274.06 25.5999 274.57C21.3199 285.08 18.81 291.88 16.54 296.97C16.3 297.51 15.74 297.84 15.15 297.79C12.92 297.6 9.22995 297.5 7.13995 297.5C5.98995 297.5 3.94995 297.61 2.29995 297.72C1.19995 297.79 0.459949 296.63 0.979949 295.67M54.8099 261.52C51.4899 253.21 48.4799 246.48 44.5299 238.81C44.0099 237.8 42.57 237.8 42.04 238.8C38.05 246.24 35.2299 253 31.7099 261.56C31.3299 262.48 32 263.5 32.99 263.51C37.11 263.54 46.55 263.59 53.54 263.46C54.52 263.44 55.1699 262.44 54.8099 261.53" fill="white"/>
<path d="M370.71 295.64C384.87 269.49 398.66 241.15 411.8 210.62C412.03 210.07 412.59 209.73 413.18 209.77C415.44 209.95 418.79 210.05 420.45 210.05C422.11 210.05 425.16 209.96 427.05 209.79C427.65 209.74 428.21 210.08 428.45 210.63C440.23 237.72 452.2 266.05 467.51 295.65C468.01 296.61 467.29 297.76 466.21 297.7C462.35 297.48 457.09 297.38 453.05 297.38C448.69 297.38 443.45 297.51 439.54 297.8C438.92 297.85 438.35 297.49 438.13 296.91C435.95 291.2 433.5 284.41 429.57 274.58C429.37 274.07 428.86 273.71 428.31 273.68C416.97 273.2 407.86 273.21 396.55 273.68C396 273.7 395.5 274.06 395.29 274.56C391.01 285.07 388.5 291.87 386.23 296.96C385.99 297.5 385.43 297.82 384.83 297.77C382.61 297.58 378.92 297.48 376.82 297.48C375.68 297.48 373.66 297.59 372.04 297.7C370.94 297.77 370.2 296.61 370.72 295.64M424.49 261.52C421.17 253.21 418.15 246.48 414.21 238.81C413.7 237.81 412.26 237.79 411.72 238.78C407.71 246.23 404.76 253.05 401.23 261.62C400.85 262.54 401.52 263.56 402.51 263.56C406.67 263.57 416.2 263.58 423.21 263.45C424.19 263.43 424.84 262.43 424.48 261.52" fill="white"/>
<path d="M551.67 230.99L549.81 231.03C549.28 231.04 548.8 230.74 548.55 230.28C544.26 222.29 536.31 217.87 522.08 217.44C511.27 217.12 502.86 220.54 496.85 226.73C490.83 232.93 487.83 241.64 487.83 252.87C487.83 265.03 490.9 274.25 497.06 280.57C503.23 286.89 512.11 289.85 523.72 290.04C534.58 290.21 543.98 287.08 551.99 280.07C552.41 279.7 553.01 279.61 553.51 279.85L553.7 279.94C554.31 280.23 554.63 280.93 554.44 281.59L551.28 292.76C551.16 293.19 550.84 293.54 550.42 293.7C540.73 297.4 530.1 299.26 518.53 299.26C500.24 299.26 486.03 295.26 475.91 287.28C465.78 279.3 460.72 268.23 460.72 254.02C460.72 240.59 466.18 229.78 477.08 221.58C487.98 213.39 502.63 209.3 521.04 209.3C532.02 209.3 543.11 211.26 554.28 215.16C555.01 215.42 555.39 216.23 555.13 216.97C553.55 221.43 552.41 225.98 551.68 230.98" fill="white"/>
</svg>
