<svg width="539" height="249" viewBox="0 0 539 249" fill="none" xmlns="http://www.w3.org/2000/svg">
<path d="M0 65.6787V193.77L98.0005 248.779L131.999 228.877V103.014L70.5611 65.6787L111.999 41.7944L171.999 77.6196V203.322L210 183.1V57.1589L113.999 0L0 65.6787Z" fill="#E9E8E8"/>
<path d="M111.999 41.7943V97.6031" stroke="#E9E8E8" stroke-width="10" stroke-miterlimit="10"/>
<path d="M132.208 174.832L172.223 201.653" stroke="#E9E8E8" stroke-width="10" stroke-miterlimit="10"/>
<path d="M402.432 108.819C401.972 108.833 401.609 108.443 401.657 107.985C402.287 102.044 402.655 94.5167 402.655 85.4768C402.655 76.437 402.355 68.9294 401.73 62.9976C401.682 62.5254 402.064 62.1302 402.539 62.1688C404.863 62.3519 407.87 62.3567 409.977 62.3567C412.083 62.3567 414.257 62.3423 416.373 62.164C416.853 62.1206 417.245 62.5061 417.196 62.9831C416.586 69.0692 416.431 76.9718 416.431 85.9202C416.431 93.8999 416.422 98.709 416.746 102.439C416.78 102.834 417.129 103.128 417.526 103.123C423.724 103.007 428.624 103.022 434.12 102.617C434.595 102.583 434.992 102.974 434.939 103.441C434.852 104.217 434.808 105.128 434.808 105.865C434.808 106.52 434.798 107.18 434.856 107.889C434.895 108.342 434.518 108.722 434.062 108.708C427.026 108.433 421.564 108.467 417.405 108.467C414.17 108.467 405.255 108.732 402.432 108.819Z" fill="#E9E8E8"/>
<path d="M381.895 82.205C383.793 80.6437 384.834 78.2874 384.834 74.9287C384.834 69.445 381.726 66.708 375.494 66.708C373.799 66.708 373.334 66.7177 373.087 66.7273C372.68 66.7418 372.356 67.0791 372.356 67.4838V83.6217C372.356 84.065 372.733 84.4119 373.174 84.3782C375.145 84.2144 380.123 83.665 381.895 82.2098M358.521 108.799C358.051 108.823 357.679 108.428 357.727 107.966C358.381 102.145 358.778 94.6517 358.778 85.4865C358.778 76.3213 358.463 69.0114 357.819 62.9494C357.771 62.4772 358.163 62.0917 358.632 62.1254C360.444 62.2604 362.196 62.3182 363.925 62.3182C365.165 62.3182 367.421 62.2845 370.675 62.1881C373.915 62.0965 376.578 62.0483 378.651 62.0483C385.507 62.0483 390.582 63.0314 393.865 64.9829C397.149 66.9393 398.78 70.0474 398.78 74.3168C398.78 83.8241 391.667 89.3366 375.397 89.3366H373.237C372.816 89.3366 372.477 89.6788 372.477 90.0932V97.938C372.477 100.67 372.704 103.137 373.334 107.913C373.397 108.39 373 108.804 372.516 108.766C370.089 108.587 367.847 108.501 365.901 108.501C364.235 108.501 360.289 108.698 358.511 108.79" fill="#E9E8E8"/>
<path d="M313.873 106.684C314.779 103.947 315.457 99.9667 316.232 96.8346C316.314 96.4973 316.624 96.266 316.973 96.266C317.321 96.266 317.636 96.5214 317.713 96.8731C318.958 102.463 322.546 105.002 329.931 105.002C333.078 105.002 335.756 104.944 337.63 103.658C339.504 102.371 340.448 100.685 340.448 98.603C340.448 96.7623 339.543 95.1529 337.678 93.8373C336.415 92.9459 333.771 91.7412 329.844 90.1655C323.573 87.6501 320.319 86.2238 318.111 84.5084C315.157 82.2147 313.869 78.7548 313.869 75.2034C313.869 71.0594 315.82 67.6766 319.723 65.0408C323.626 62.4098 328.899 61.0991 335.538 61.0991C340.836 61.0991 345.538 62.0773 349.62 64.0193C349.993 64.1975 350.143 64.6409 349.978 65.0167C348.806 67.6429 347.755 70.8907 347.073 73.0495H346.051C345.136 70.9726 343.543 68.5103 341.325 67.3297C339.121 66.1588 336.763 65.7251 333.872 65.7251C331.165 65.7251 329.195 66.1973 327.529 67.3297C325.878 68.4525 324.841 69.5704 324.841 71.1124C324.841 72.8567 325.698 74.365 327.422 75.6082C328.706 76.5334 331.669 77.9935 335.369 79.415C338.013 80.4317 339.761 81.434 342.371 82.4267C344.986 83.4145 346.826 84.359 347.939 85.236C351.184 87.7754 352.423 90.7004 352.423 94.3963C352.423 99.0464 350.38 102.848 346.143 105.667C341.969 108.443 337.373 109.662 330.216 109.739C324.318 109.807 316.881 108.212 314.43 107.648C313.999 107.547 313.743 107.103 313.883 106.684" fill="#E9E8E8"/>
<path d="M295.72 108.872C295.251 108.901 294.873 108.505 294.921 108.043C295.522 102.415 295.875 94.9071 295.875 85.5203C295.875 76.1335 295.59 68.4332 294.999 62.9591C294.95 62.4821 295.348 62.0918 295.827 62.1351C298.146 62.3472 300.442 62.4532 302.713 62.4532C304.984 62.4532 307.294 62.3423 309.511 62.1351C309.991 62.0918 310.388 62.4821 310.335 62.9591C309.744 68.5054 309.439 76.0226 309.439 85.5203C309.439 95.0179 309.739 102.631 310.33 108.024C310.383 108.496 309.986 108.891 309.511 108.857C306.998 108.674 304.732 108.587 302.708 108.587C300.95 108.587 297.386 108.775 295.72 108.872Z" fill="#E9E8E8"/>
<path d="M238.087 107.739C245.776 93.6109 253.292 78.297 260.424 61.7978C260.55 61.5039 260.85 61.3159 261.175 61.3448C262.4 61.4412 264.221 61.4942 265.121 61.4942C266.022 61.4942 267.678 61.446 268.705 61.3545C269.029 61.3256 269.334 61.5087 269.465 61.8074C275.857 76.4418 282.36 91.7508 290.675 107.744C290.946 108.265 290.553 108.881 289.968 108.848C287.871 108.727 285.014 108.674 282.82 108.674C280.452 108.674 277.61 108.742 275.489 108.901C275.155 108.925 274.84 108.732 274.724 108.419C273.537 105.335 272.211 101.668 270.07 96.3527C269.959 96.0732 269.683 95.8805 269.388 95.866C263.228 95.6106 258.289 95.6106 252.139 95.866C251.839 95.8805 251.568 96.0732 251.456 96.3479C249.132 102.029 247.771 105.701 246.537 108.448C246.406 108.742 246.106 108.915 245.781 108.886C244.571 108.78 242.566 108.732 241.433 108.732C240.808 108.732 239.699 108.79 238.808 108.848C238.213 108.886 237.811 108.26 238.091 107.739M267.32 89.3029C265.519 84.8167 263.882 81.1786 261.741 77.0297C261.461 76.4852 260.681 76.4852 260.39 77.0249C258.226 81.0437 256.691 84.6963 254.783 89.3222C254.58 89.8185 254.938 90.3679 255.475 90.3727C257.713 90.3872 262.841 90.4112 266.632 90.3486C267.165 90.339 267.518 89.7993 267.32 89.3078" fill="#E9E8E8"/>
<path d="M438.835 107.739C446.52 93.6108 454.011 78.3018 461.144 61.7978C461.27 61.499 461.57 61.3159 461.894 61.34C463.12 61.4364 464.94 61.4894 465.841 61.4894C466.742 61.4894 468.398 61.4412 469.424 61.3496C469.749 61.3207 470.054 61.5038 470.185 61.8026C476.576 76.437 483.08 91.746 491.394 107.739C491.665 108.26 491.273 108.876 490.687 108.843C488.59 108.722 485.738 108.669 483.545 108.669C481.177 108.669 478.329 108.742 476.208 108.896C475.874 108.92 475.564 108.727 475.443 108.414C474.257 105.33 472.93 101.663 470.795 96.3479C470.683 96.0732 470.407 95.8756 470.107 95.8612C463.948 95.6058 459.008 95.6058 452.859 95.8612C452.563 95.8708 452.287 96.0635 452.176 96.3382C449.852 102.019 448.491 105.691 447.256 108.443C447.125 108.737 446.82 108.91 446.496 108.881C445.29 108.78 443.285 108.727 442.147 108.727C441.528 108.727 440.433 108.785 439.552 108.843C438.956 108.881 438.554 108.255 438.835 107.734M468.039 89.3029C466.238 84.8119 464.597 81.1786 462.461 77.0297C462.185 76.49 461.401 76.4804 461.11 77.0152C458.931 81.0389 457.333 84.7252 455.415 89.3559C455.207 89.8522 455.57 90.4064 456.113 90.4064C458.369 90.4112 463.546 90.416 467.352 90.3486C467.884 90.3389 468.238 89.7992 468.039 89.3077" fill="#E9E8E8"/>
<path d="M537.087 72.8086L536.075 72.8326C535.79 72.8375 535.528 72.6784 535.393 72.4279C533.063 68.1103 528.749 65.7203 521.02 65.4938C515.152 65.3203 510.585 67.1659 507.321 70.51C504.053 73.859 502.421 78.5621 502.421 84.6336C502.421 91.2015 504.087 96.1841 507.433 99.6005C510.784 103.017 515.607 104.612 521.911 104.718C527.805 104.814 532.908 103.118 537.257 99.3307C537.484 99.1331 537.809 99.0801 538.08 99.2102L538.182 99.2584C538.516 99.4174 538.685 99.7933 538.584 100.15L536.865 106.188C536.802 106.419 536.627 106.612 536.4 106.698C531.141 108.698 525.369 109.701 519.084 109.701C509.152 109.701 501.438 107.542 495.942 103.229C490.441 98.9163 487.695 92.9363 487.695 85.2601C487.695 78.0031 490.659 72.1628 496.576 67.7345C502.498 63.3061 510.45 61.0991 520.444 61.0991C526.405 61.0991 532.429 62.1592 538.492 64.265C538.889 64.4047 539.097 64.8432 538.957 65.2432C538.099 67.6525 537.48 70.1101 537.083 72.8134" fill="#E9E8E8"/>
<path d="M323.932 144.761V125.877H328.014V142.872C328.014 144.13 328.697 144.761 330.057 144.761H342.304C343.664 144.761 344.347 144.13 344.347 142.872V125.877H348.429V144.761C348.429 147.282 347.069 148.539 344.347 148.539H328.014C325.293 148.539 323.932 147.282 323.932 144.761Z" fill="white"/>
<path d="M352.511 148.534V125.877H356.593V148.534H352.511Z" fill="white"/>
<path d="M365.905 148.534V129.65H360.574V125.872H375.512V129.65H369.987V148.534H365.905Z" fill="white"/>
<path d="M440.951 148.534V129.65H435.62V125.872H450.558V129.65H445.033V148.534H440.951Z" fill="white"/>
<path d="M379.652 148.534V125.877H404.15V129.655H383.735V135.322H400.068V139.099H383.735V144.766H404.15V148.544H379.652V148.534Z" fill="white"/>
<path d="M408.233 129.655C408.233 127.139 409.593 125.877 412.315 125.877H428.648C431.369 125.877 432.73 127.135 432.73 129.655V130.161H428.648V129.655H412.315V144.761H428.648V143.981H432.73V144.761C432.73 147.282 431.369 148.539 428.648 148.539H412.315C409.593 148.539 408.233 147.282 408.233 144.761V129.655Z" fill="white"/>
<path d="M453.295 144.761V125.877H457.377V142.872C457.377 144.13 458.06 144.761 459.42 144.761H471.667C473.027 144.761 473.71 144.13 473.71 142.872V125.877H477.792V144.761C477.792 147.282 476.431 148.539 473.71 148.539H457.377C454.655 148.539 453.295 147.282 453.295 144.761Z" fill="white"/>
<path d="M258.216 177.856V160.273L250.677 170.99L242.978 160.273V177.856H238.072V155.252H242.726L250.595 162.354L258.463 155.252H263.117V177.856H258.212H258.216Z" fill="white"/>
<path d="M352.264 177.914V155.247H357.17V173.437H364.114V177.914H352.264Z" fill="white"/>
<path d="M315.414 155.247H294.815V177.914H299.817V173.437H299.72V159.723H314.939V173.437H301.468V177.914H315.419C318.397 177.914 319.888 176.565 319.888 173.871V159.29C319.888 156.596 318.397 155.247 315.419 155.247H315.414Z" fill="white"/>
<path d="M258.986 125.886H242.807C239.805 125.886 238.299 127.231 238.299 129.925V148.52L243.267 148.539V139.422H256.898V134.984H243.267V130.358H258.545V132.806H258.559V142.689H258.545V148.539H263.47V129.934C263.47 127.236 261.973 125.886 258.986 125.886Z" fill="white"/>
<path d="M530.729 125.886H514.551C511.549 125.886 510.043 127.231 510.043 129.925V148.52L515.011 148.539V139.422H528.642V134.984H515.011V130.358H530.289V132.806H530.303V142.689H530.289V148.539H535.213V129.934C535.213 127.236 533.717 125.886 530.729 125.886Z" fill="white"/>
<path d="M387.744 155.261H371.566C368.564 155.261 367.058 156.606 367.058 159.299V177.895L372.026 177.914V168.797H385.657V164.359H372.026V159.733H387.304V162.181H387.318V172.064H387.304V177.914H392.228V159.309C392.228 156.611 390.732 155.261 387.744 155.261Z" fill="white"/>
<path d="M270.733 177.914C268.012 177.914 266.651 176.661 266.651 174.151V159.102C266.651 156.591 268.012 155.338 270.733 155.338H287.067C289.788 155.338 291.149 156.591 291.149 159.102V174.151C291.149 176.661 289.788 177.914 287.067 177.914H270.733ZM270.733 174.151H287.067V159.102H270.733V174.151Z" fill="white"/>
<path d="M323.81 174.151V155.338H327.892V172.266C327.892 173.519 328.575 174.146 329.936 174.146H342.182C343.543 174.146 344.226 173.519 344.226 172.266V155.338H348.308V174.151C348.308 176.661 346.947 177.914 344.226 177.914H327.892C325.171 177.914 323.81 176.661 323.81 174.151Z" fill="white"/>
<path d="M291.27 133.433V129.655C291.27 127.139 289.909 125.877 287.188 125.877H266.773V148.534H270.855V139.095H270.942V135.317H270.855V129.65H287.188L287.207 131.539C287.236 134.059 285.871 135.317 283.12 135.317H273.077V139.095H283.12C285.847 139.095 287.207 140.352 287.207 142.872L287.188 148.539H291.27V140.988C291.27 138.473 289.909 137.211 287.188 137.211C289.909 135.953 291.27 134.695 291.27 133.433Z" fill="white"/>
<path d="M420.023 162.807V159.03C420.023 156.514 418.662 155.252 415.941 155.252H395.526V177.909H399.608V168.469L399.695 168.354V164.812L399.608 164.692V159.025H415.941L415.96 160.914C415.989 163.434 414.624 164.692 411.873 164.692H401.83V168.469H411.873C414.6 168.469 415.96 169.727 415.96 172.247L415.941 177.914H420.023V170.363C420.023 167.848 418.662 166.585 415.941 166.585C418.662 165.328 420.023 164.07 420.023 162.807Z" fill="white"/>
<path d="M506.456 133.433V129.655C506.456 127.139 505.095 125.877 502.373 125.877H481.958V148.534H486.04V139.095L486.127 138.979V135.437L486.04 135.317V129.65H502.373L502.393 131.539C502.422 134.059 501.056 135.317 498.306 135.317H488.263V139.095H498.306C501.032 139.095 502.393 140.352 502.393 142.872L502.373 148.539H506.456V140.988C506.456 138.473 505.095 137.211 502.373 137.211C505.095 135.953 506.456 134.695 506.456 133.433Z" fill="white"/>
<path d="M319.849 129.655C319.849 127.139 318.488 125.877 315.767 125.877H299.434C296.712 125.877 295.352 127.135 295.352 129.655V144.761C295.352 147.282 296.712 148.539 299.434 148.539H314.808L310.276 144.761H299.434V129.655H315.767V142.872L311.685 139.095L309.651 140.979L312.963 144.043L318.522 148.539H319.849V129.655Z" fill="white"/>
</svg>
